<svg xmlns="http://www.w3.org/2000/svg" width="24.624" height="24.624" viewBox="0 0 24.624 24.624"><path id="_5279111_network_fb_social_media_facebook_facebook_logo_icon" data-name="5279111_network_fb_social media_facebook_facebook logo_icon" d="M12.265,24.624h0Zm.087,0h0Zm-.124,0h0Zm.164,0h0Zm-.2,0h0Zm.24,0h0Zm.04,0h0Zm-.326,0h0Zm.366,0h0Zm-.4,0h0Zm.444,0h0Zm-.48,0h0Zm-.045,0h0Zm.565,0h0Zm-.6,0h0Zm.644,0h0Zm.04,0h0Zm-.72,0h0Zm-.035,0h0Zm.794,0h0Zm.039,0h0Zm-.884,0h0Zm-.036,0h0Zm.959,0h0Zm-.994,0h0Zm1.034,0h0Zm-1.083,0h0Zm1.123,0h0Zm-1.158,0h0Zm1.2,0h0Zm-1.233,0h0Zm1.272,0h0Zm.039,0h0Zm-1.343,0h0Zm1.382,0h0Zm-1.435,0h0Zm-.035,0h0Zm1.509,0h0Zm-1.542,0h0Zm1.582,0h0Zm.039,0h0Zm-1.672,0h0Zm-.035,0h0Zm1.745,0h0Zm-1.78,0h0Zm1.819,0h0Zm-1.866,0h0Zm1.9,0h0Zm.039,0h0Zm-1.979,0h0Zm-.035,0h0Zm2.053,0h0Zm-2.092,0h0Zm2.131,0h0Zm.039,0h0Zm-2.211,0h0Zm-.036,0h0Zm2.286,0h0Zm-3.065-.1a12.312,12.312,0,1,1,3.848,0v-8.6H17.1l.546-3.559H14.236V10A1.779,1.779,0,0,1,16.242,8.08h1.553V5.05a18.933,18.933,0,0,0-2.756-.24c-2.812,0-4.65,1.7-4.65,4.79v2.712H7.262v3.559h3.126Z"></path></svg>