<svg xmlns="http://www.w3.org/2000/svg" width="73" height="73" viewBox="0 0 73 73"><g id="Group_12" data-name="Group 12" transform="translate(-987 -3296)"><path id="Icon_feather-thumbs-down" data-name="Icon feather-thumbs-down" d="M15,22.5v6A4.5,4.5,0,0,0,19.5,33l6-13.5V3H8.58a3,3,0,0,0-3,2.55L3.51,19.05a3,3,0,0,0,3,3.45ZM25.5,3h4.005A3.465,3.465,0,0,1,33,6V16.5a3.465,3.465,0,0,1-3.495,3H25.5" transform="translate(1006.024 3314.5)" fill="none" stroke="#088a91" stroke-linecap="round" stroke-linejoin="round" stroke-width="3"></path><g id="Ellipse_6" data-name="Ellipse 6" transform="translate(987 3296)" fill="none" stroke="#088a91" stroke-width="1" opacity="0.509"><circle cx="36.5" cy="36.5" r="36.5" stroke="none"></circle><circle cx="36.5" cy="36.5" r="36" fill="none"></circle></g></g></svg>