<svg xmlns="http://www.w3.org/2000/svg" id="_7693314_instagram_social_media_logo_apps_icon" data-name="7693314_instagram_social media_logo_apps_icon" width="24.656" height="24.656" viewBox="0 0 24.656 24.656"><path id="Path_636" data-name="Path 636" d="M155.578,147.525h-5.659a2.394,2.394,0,0,0-2.394,2.394v5.659a2.394,2.394,0,0,0,2.394,2.394h5.659a2.394,2.394,0,0,0,2.394-2.394v-5.659a2.394,2.394,0,0,0-2.394-2.394Zm-2.83,8.517a3.293,3.293,0,1,1,3.294-3.294A3.293,3.293,0,0,1,152.749,156.042Zm3.431-5.914a.784.784,0,1,1,.784-.784.784.784,0,0,1-.784.784Z" transform="translate(-140.421 -140.421)"></path><path id="Path_637" data-name="Path 637" d="M213.686,211.545a2.141,2.141,0,1,0,2.141,2.141A2.141,2.141,0,0,0,213.686,211.545Z" transform="translate(-201.358 -201.358)"></path><path id="Path_638" data-name="Path 638" d="M12.328,0A12.328,12.328,0,1,0,24.656,12.328,12.328,12.328,0,0,0,12.328,0Zm6.421,15.049a3.7,3.7,0,0,1-3.7,3.7H9.607a3.7,3.7,0,0,1-3.7-3.7V9.607a3.7,3.7,0,0,1,3.7-3.7h5.442a3.7,3.7,0,0,1,3.7,3.7Z"></path></svg>