<svg xmlns="http://www.w3.org/2000/svg" width="174.436" height="149.227" viewBox="0 0 174.436 149.227"><g id="Group_11609" data-name="Group 11609" transform="translate(-6824.004 3120.152)"><g id="_3325077_check_circle_icon" data-name="3325077_check_circle_icon" transform="translate(6844.125 -3079.732)"><path id="Path_641" data-name="Path 641" d="M105.728,49.119V53.89a51.864,51.864,0,1,1-30.755-47.4" transform="translate(-2 -1.994)" fill="none" stroke="#95ecf0" stroke-linecap="round" stroke-linejoin="round" stroke-width="10"></path><path id="Path_642" data-name="Path 642" d="M76.423,4,24.559,55.916,9,40.357" transform="translate(27.305 6.405)" fill="none" stroke="#95ecf0" stroke-linecap="round" stroke-linejoin="round" stroke-width="10"></path></g><g id="_216411_star_icon" data-name="216411_star_icon" transform="translate(6962.64 -3062.013)"><g id="Group_11434" data-name="Group 11434" transform="translate(0 0)"><path id="Path_643" data-name="Path 643" d="M15.9,15.017,4.6,16.269A1.079,1.079,0,0,0,3.7,17,1.061,1.061,0,0,0,4,18.121c3.357,3.063,8.4,7.65,8.4,7.65S11.017,32.444,10.1,36.9a1.08,1.08,0,0,0,.42,1.085,1.064,1.064,0,0,0,1.153.06c3.953-2.246,9.873-5.625,9.873-5.625s5.923,3.378,9.869,5.627A1.068,1.068,0,0,0,32.992,36.9c-.917-4.454-2.3-11.127-2.3-11.127s5.044-4.587,8.4-7.644A1.081,1.081,0,0,0,39.4,17a1.069,1.069,0,0,0-.9-.731C33.978,15.768,27.2,15.017,27.2,15.017L22.523,4.664a1.084,1.084,0,0,0-.977-.63,1.069,1.069,0,0,0-.971.63C18.7,8.805,15.9,15.017,15.9,15.017Z" transform="translate(-3.649 -4.034)" fill="#95ecf0"></path></g></g><g id="_216411_star_icon-2" data-name="216411_star_icon" transform="translate(6844.125 -3120.152)"><g id="Group_11434-2" data-name="Group 11434" transform="translate(0 0)"><path id="Path_643-2" data-name="Path 643" d="M15.9,15.017,4.6,16.269A1.079,1.079,0,0,0,3.7,17,1.061,1.061,0,0,0,4,18.121c3.357,3.063,8.4,7.65,8.4,7.65S11.017,32.444,10.1,36.9a1.08,1.08,0,0,0,.42,1.085,1.064,1.064,0,0,0,1.153.06c3.953-2.246,9.873-5.625,9.873-5.625s5.923,3.378,9.869,5.627A1.068,1.068,0,0,0,32.992,36.9c-.917-4.454-2.3-11.127-2.3-11.127s5.044-4.587,8.4-7.644A1.081,1.081,0,0,0,39.4,17a1.069,1.069,0,0,0-.9-.731C33.978,15.768,27.2,15.017,27.2,15.017L22.523,4.664a1.084,1.084,0,0,0-.977-.63,1.069,1.069,0,0,0-.971.63C18.7,8.805,15.9,15.017,15.9,15.017Z" transform="translate(-3.649 -4.034)" fill="#c4ea0e"></path></g></g><g id="_216411_star_icon-3" data-name="216411_star_icon" transform="translate(6824.004 -3079.732)"><g id="Group_11434-3" data-name="Group 11434" transform="translate(0 0)"><path id="Path_643-3" data-name="Path 643" d="M10.531,10.207l-6.346.7a.606.606,0,0,0-.507.413.6.6,0,0,0,.169.628c1.887,1.721,4.721,4.3,4.721,4.3S7.79,20,7.274,22.5a.607.607,0,0,0,.236.61.6.6,0,0,0,.648.034c2.221-1.263,5.549-3.161,5.549-3.161l5.546,3.162a.6.6,0,0,0,.887-.643c-.516-2.5-1.29-6.254-1.29-6.254s2.835-2.578,4.721-4.3a.608.608,0,0,0,.169-.631.6.6,0,0,0-.506-.411c-2.539-.284-6.348-.706-6.348-.706l-2.63-5.819a.609.609,0,0,0-.549-.354.6.6,0,0,0-.546.354C12.108,6.716,10.531,10.207,10.531,10.207Z" transform="translate(-3.649 -4.034)" fill="#3ddf37"></path></g></g></g></svg>