<svg xmlns="http://www.w3.org/2000/svg" width="73" height="73" viewBox="0 0 73 73"><g id="Group_11" data-name="Group 11" transform="translate(-904 -3296)"><path id="Icon_feather-thumbs-up" data-name="Icon feather-thumbs-up" d="M21,13.5v-6A4.5,4.5,0,0,0,16.5,3l-6,13.5V33H27.42a3,3,0,0,0,3-2.55l2.07-13.5a3,3,0,0,0-3-3.45ZM10.5,33H6a3,3,0,0,1-3-3V19.5a3,3,0,0,1,3-3h4.5" transform="translate(922.5 3314.5)" fill="none" stroke="#088a91" stroke-linecap="round" stroke-linejoin="round" stroke-width="3"></path><g id="Ellipse_5" data-name="Ellipse 5" transform="translate(904 3296)" fill="none" stroke="#088a91" stroke-width="1" opacity="0.509"><circle cx="36.5" cy="36.5" r="36.5" stroke="none"></circle><circle cx="36.5" cy="36.5" r="36" fill="none"></circle></g></g></svg>