<svg xmlns="http://www.w3.org/2000/svg" width="24.371" height="21.5" viewBox="0 0 24.371 21.5"><path id="Icon_awesome-comment" data-name="Icon awesome-comment" d="M11.429,2.25C5.116,2.25,0,6.406,0,11.536a8.242,8.242,0,0,0,2.545,5.835A11.357,11.357,0,0,1,.1,21.647a.355.355,0,0,0-.067.388.35.35,0,0,0,.326.214,10.21,10.21,0,0,0,6.277-2.295,13.615,13.615,0,0,0,4.795.866c6.313,0,11.429-4.156,11.429-9.286S17.741,2.25,11.429,2.25Z" transform="translate(0.764 -1.5)" fill="none" stroke="#262525" stroke-width="1.5"></path></svg>