<svg xmlns="http://www.w3.org/2000/svg" width="24.213" height="24.212" viewBox="0 0 24.213 24.212"><path id="_104461_twitter_icon" data-name="104461_twitter_icon" d="M15.83,5.157A12.106,12.106,0,1,0,27.936,17.264,12.107,12.107,0,0,0,15.83,5.157Zm6.1,9.666c.006.131.009.262.009.395a8.677,8.677,0,0,1-13.358,7.31,6.24,6.24,0,0,0,.728.042A6.121,6.121,0,0,0,13.1,21.264a3.055,3.055,0,0,1-2.85-2.119,2.98,2.98,0,0,0,.574.055,3.032,3.032,0,0,0,.8-.107A3.053,3.053,0,0,1,9.176,16.1c0-.013,0-.026,0-.039a3.041,3.041,0,0,0,1.382.382,3.055,3.055,0,0,1-.944-4.074A8.662,8.662,0,0,0,15.9,15.558a3.053,3.053,0,0,1,5.2-2.783,6.094,6.094,0,0,0,1.938-.74A3.06,3.06,0,0,1,21.7,13.722a6.1,6.1,0,0,0,1.753-.48A6.164,6.164,0,0,1,21.928,14.823Z" transform="translate(-3.723 -5.157)"></path></svg>