<svg xmlns="http://www.w3.org/2000/svg" width="20" height="20" viewBox="0 0 20 20">
  <path id="_8686331_ic_fluent_skip_forward_filled_icon" data-name="8686331_ic_fluent_skip_forward_filled_icon" d="M20.553,6.789V4.154a1.026,1.026,0,1,1,2.051,0V9.066a1.039,1.039,0,0,1-1.025,1.053H16.11a1.053,1.053,0,0,1,0-2.105h2.768a8.527,8.527,0,0,0-6.528-3.158A8.8,8.8,0,0,0,4.618,9.828a1.138,1.138,0,0,1-1,.641.992.992,0,0,1-.915-1.422,10.832,10.832,0,0,1,9.642-6.3A10.523,10.523,0,0,1,20.553,6.789ZM16.134,22.75c2.564,0,3.418-2.2,3.418-4.912s-.855-4.912-3.418-4.912-3.418,2.2-3.418,4.912S13.571,22.75,16.134,22.75Zm.925-2.544a.818.818,0,0,1-.3.313,1.63,1.63,0,0,1-1.256,0,.816.816,0,0,1-.3-.313,4.857,4.857,0,0,1-.442-2.368,4.857,4.857,0,0,1,.442-2.368.816.816,0,0,1,.3-.313,1.63,1.63,0,0,1,1.256,0,.818.818,0,0,1,.3.313,4.857,4.857,0,0,1,.442,2.368A4.857,4.857,0,0,1,17.059,20.206Zm-6.736-6.228a1.055,1.055,0,0,0-.6-.956,1,1,0,0,0-1.1.157L6.238,15.284a1.072,1.072,0,0,0-.111,1.484,1.007,1.007,0,0,0,1.446.114l.7-.616V21.7a1.026,1.026,0,1,0,2.051,0Z" transform="translate(-2.604 -2.75)" fill="#138a91"/>
</svg>
