<svg xmlns="http://www.w3.org/2000/svg" width="20" height="20" viewBox="0 0 20 20">
  <path id="_8686300_ic_fluent_skip_back_filled_icon" data-name="8686300_ic_fluent_skip_back_filled_icon" d="M4.551,6.789V4.154a1.026,1.026,0,1,0-2.051,0V9.066a1.039,1.039,0,0,0,1.025,1.053H8.994a1.053,1.053,0,0,0,0-2.105H6.227a8.527,8.527,0,0,1,6.528-3.158,8.8,8.8,0,0,1,7.732,4.973,1.138,1.138,0,0,0,1,.641A.992.992,0,0,0,22.4,9.047a10.832,10.832,0,0,0-9.642-6.3A10.523,10.523,0,0,0,4.551,6.789Zm5.811,7.189a1.055,1.055,0,0,0-.6-.956,1,1,0,0,0-1.1.157L6.276,15.284a1.072,1.072,0,0,0-.111,1.484,1.007,1.007,0,0,0,1.446.114l.7-.616V21.7a1.026,1.026,0,1,0,2.051,0Zm9.229,3.86c0,2.713-.855,4.912-3.418,4.912s-3.418-2.2-3.418-4.912.855-4.912,3.418-4.912S19.591,15.125,19.591,17.838Zm-2.051,0a4.857,4.857,0,0,0-.442-2.368.817.817,0,0,0-.3-.313,1.63,1.63,0,0,0-1.256,0,.817.817,0,0,0-.3.313,4.857,4.857,0,0,0-.442,2.368,4.857,4.857,0,0,0,.442,2.368.817.817,0,0,0,.3.313,1.63,1.63,0,0,0,1.256,0,.817.817,0,0,0,.3-.313A4.857,4.857,0,0,0,17.54,17.838Z" transform="translate(-2.5 -2.75)" fill="#0068ad"/>
</svg>
