<svg xmlns="http://www.w3.org/2000/svg" width="371.363" height="343.162" viewBox="0 0 371.363 343.162"><g transform="translate(0 0)"><path d="M227.247,143.094A22.534,22.534,0,0,0,204.739,165.6V424.909a22.534,22.534,0,0,0,22.508,22.508H417.468a22.534,22.534,0,0,0,22.508-22.508V165.6a22.534,22.534,0,0,0-22.508-22.508Z" transform="translate(-204.739 -115.688)" fill="#3f3d56"/><rect width="211.827" height="272.35" transform="translate(11.705 43.393)" fill="#fff"/><rect width="156.444" height="10.277" transform="translate(39.397 92.21)" fill="#0288d1"/><rect width="156.444" height="10.277" transform="translate(39.397 119.616)" fill="#0288d1"/><rect width="156.444" height="10.277" transform="translate(39.397 147.023)" fill="#0288d1"/><rect width="156.444" height="10.277" transform="translate(39.397 174.429)" fill="#0288d1"/><rect width="156.444" height="10.277" transform="translate(39.397 201.835)" fill="#0288d1"/><rect width="156.444" height="10.277" transform="translate(39.397 229.242)" fill="#0288d1"/><rect width="156.444" height="10.277" transform="translate(39.397 256.648)" fill="#0288d1"/><rect width="157.705" height="202.763" transform="translate(42.913 54.513) rotate(-10.37)" fill="#e6e6e6"/><rect width="116.472" height="7.651" transform="translate(69.735 86.553) rotate(-10.37)" fill="#0288d1"/><rect width="116.472" height="7.651" transform="translate(73.408 106.623) rotate(-10.37)" fill="#0288d1"/><rect width="116.472" height="7.651" transform="translate(77.081 126.693) rotate(-10.37)" fill="#0288d1"/><rect width="116.472" height="7.651" transform="translate(80.754 146.764) rotate(-10.37)" fill="#0288d1"/><rect width="116.472" height="7.651" transform="translate(84.427 166.834) rotate(-10.37)" fill="#0288d1"/><rect width="116.472" height="7.651" transform="translate(88.099 186.905) rotate(-10.37)" fill="#0288d1"/><rect width="116.472" height="7.651" transform="translate(91.772 206.975) rotate(-10.37)" fill="#0288d1"/><rect width="44.623" height="57.373" transform="translate(263.948 252.341) rotate(-10.37)" fill="#e6e6e6"/><rect width="32.956" height="2.165" transform="translate(271.538 261.407) rotate(-10.37)" fill="#fff"/><rect width="32.956" height="2.165" transform="translate(272.577 267.086) rotate(-10.37)" fill="#fff"/><rect width="32.956" height="2.165" transform="translate(273.616 272.765) rotate(-10.37)" fill="#fff"/><rect width="32.956" height="2.165" transform="translate(274.655 278.444) rotate(-10.37)" fill="#fff"/><rect width="32.956" height="2.165" transform="translate(275.695 284.123) rotate(-10.37)" fill="#fff"/><rect width="32.956" height="2.165" transform="translate(276.734 289.802) rotate(-10.37)" fill="#fff"/><rect width="32.956" height="2.165" transform="translate(277.773 295.481) rotate(-10.37)" fill="#fff"/><path d="M438.268,99.028H419.6V95.206a10.453,10.453,0,0,0-10.453-10.453h-20.2a10.453,10.453,0,0,0-10.453,10.453v3.821H359.826a10.453,10.453,0,0,0-10.453,10.453v28.944h99.347V109.481a10.453,10.453,0,0,0-10.453-10.453Z" transform="translate(-281.428 -84.754)" fill="#3f3d56"/><path d="M439.44,701.836c3.086-2.112,6.258-4.309,9.923-5.269,3.344-.876,7.184-.644,9.828,1.8,2.134,1.976,3.036,5.013,1.454,7.612a4.837,4.837,0,0,1-3.2,2.332,3.861,3.861,0,0,1-3.471-1.356,3.541,3.541,0,0,1-.885-3.478,4.557,4.557,0,0,1,2.92-2.48,21.61,21.61,0,0,1,4.355-.9l6.056-.829,24.789-3.394,27.606-3.779a.863.863,0,0,0,.6-1.054.879.879,0,0,0-1.054-.6l-54.931,7.52c-1.987.272-4,.467-5.968.866a10.037,10.037,0,0,0-4.285,1.78,5.114,5.114,0,0,0-.022,7.948,5.666,5.666,0,0,0,8.157-.61,7.4,7.4,0,0,0,.561-9.062c-2.348-3.541-6.627-4.9-10.716-4.4-4.728.581-8.737,3.238-12.577,5.867C437.671,700.975,438.527,702.46,439.44,701.836Z" transform="translate(-328.522 -405.898)" fill="#3f3d56"/><path d="M850.9,579.591l.571,5.71s-3.426,12.561,4,12.561,1.713-12.561,1.713-12.561l.571-4.568Z" transform="translate(-547.237 -347.133)" fill="#a0616a"/><path d="M952.317,539.1l-2.619,5.1s-9.7,8.69-3.462,12.719,8.257-9.62,8.257-9.62l2.959-3.526Z" transform="translate(-596.795 -325.662)" fill="#a0616a"/><path d="M870.591,585.373l7.994,54.241,4,38.826s3.426,8.564,14.845,1.142l-1.713-22.268-1.142-19.984s-1.142-19.413-2.284-22.839.571-14.845.571-14.845l4.568-18.842Z" transform="translate(-557.794 -347.776)" fill="#2f2e41"/><path d="M883.568,786.211,879,791.35s-6.852-2.284-8.564,2.284,13.132,5.71,13.132,5.71,15.416,1.142,15.416,0-.413-9.875-2.49-10.362S883.568,786.211,883.568,786.211Z" transform="translate(-557.64 -456.689)" fill="#2f2e41"/><path d="M916.777,579.941l7.993,57.1,4,38.826s3.426,8.564,14.845,1.142L941.9,654.737l-1.142-19.984s-1.142-19.413-2.284-22.839.571-14.845.571-14.845L937.9,575.944Z" transform="translate(-582.284 -345.199)" fill="#2f2e41"/><path d="M929.754,786.211l-4.568,5.139s-6.852-2.284-8.564,2.284,13.132,5.71,13.132,5.71,15.416,1.142,15.416,0-.413-9.875-2.49-10.362S929.754,786.211,929.754,786.211Z" transform="translate(-582.129 -456.689)" fill="#2f2e41"/><circle cx="11.99" cy="11.99" r="11.99" transform="translate(305.374 120.549)" fill="#a0616a"/><path d="M683.459,293.685l5.139,8.565-13.132,5.71-1.713-10.278Z" transform="translate(-357.245 -155.721)" fill="#a0616a"/><path d="M878.826,394.777s-11.99-1.142-16.558,6.281L851,409.622a6.5,6.5,0,0,0-2.509,6.024l9.782,73.91,14.274-.571,23.41-4.568,6.852-1.713-3.426-30.261s-4-11.99.571-19.984l-2.284-27.977-15.987-6.28Z" transform="translate(-546.045 -249.105)" fill="#0288d1"/><path d="M850.85,429.7l-.856-1.427s-1.142,0-1.142,2.284-2,51.672-2,51.672l-.571,18.842,10.848,1.142,4-35.4L859.415,443.4Z" transform="translate(-544.906 -266.898)" fill="#0288d1"/><path d="M936.224,413.079l7.993,1.142a53.06,53.06,0,0,1,7.993,10.848c3.426,6.281,13.7,18.271,11.419,27.406s-9.136,25.693-9.136,25.693L943.646,473.6s8.564-19.984,7.994-21.7-7.423-11.99-7.423-11.99Z" transform="translate(-592.595 -258.843)" fill="#0288d1"/><path d="M856.437,342.093s-9.706-.571-3.426-6.852c0,0,5.139-2.284,7.423-1.142,0,0,3.426-2.284,3.426-1.142,0,0,11.99-3.426,13.7,8.564s-1.142,17.7-1.142,17.7l-7.994-.571s1.713-9.706-4.568-8.564c0,0-5.139,1.713-5.71,0S856.437,342.093,856.437,342.093Z" transform="translate(-547.352 -216.12)" fill="#2f2e41"/><path d="M667.032,436.578l5.139-34.257L668.745,381.2l1.142,22.978-3.426,32.405Z" transform="translate(-353.379 -202.122)" opacity="0.2"/></g></svg>