<svg xmlns="http://www.w3.org/2000/svg" viewBox="0 0 793.6 173"><path d="M306.2,47.9a2.88,2.88,0,0,1,.9,2.1v8a3.28,3.28,0,0,1-.9,2.2,2.88,2.88,0,0,1-2.1.9H283.7v62a3.28,3.28,0,0,1-.9,2.2,2.88,2.88,0,0,1-2.1.9h-9.2a2.88,2.88,0,0,1-2.1-.9,2.94,2.94,0,0,1-.9-2.2v-62H248a2.88,2.88,0,0,1-2.1-.9A2.94,2.94,0,0,1,245,58V50a3.08,3.08,0,0,1,3-3h56A3.1,3.1,0,0,1,306.2,47.9Z" fill="#343a40"/><path d="M361.8,96.8c0,2-.1,3.8-.2,5.7a27.75,27.75,0,0,1-4.2,12.6,24.4,24.4,0,0,1-9.9,8.9,32.63,32.63,0,0,1-28.6,0,25.9,25.9,0,0,1-9.9-8.9,27.75,27.75,0,0,1-4.2-12.6c-.1-.9-.1-2.8-.1-5.7s0-4.9.1-5.8A27.75,27.75,0,0,1,309,78.3a25.13,25.13,0,0,1,9.9-8.9,32.63,32.63,0,0,1,28.6,0,25.9,25.9,0,0,1,9.9,8.9A27.75,27.75,0,0,1,361.6,91C361.7,92.9,361.8,94.8,361.8,96.8ZM324,82.5c-2.5,1.8-4,4.9-4.5,9.2-.1.8-.1,2.5-.1,5.1s0,4.3.1,5.1c.5,4.3,1.9,7.4,4.5,9.2a17,17,0,0,0,18.4,0c2.5-1.8,4-4.9,4.5-9.2.1-1.5.2-3.2.2-5.1s-.1-3.6-.2-5.1c-.5-4.3-1.9-7.4-4.5-9.2a17,17,0,0,0-18.4,0Z" fill="#343a40"/><path d="M395.7,110.6c1.3,1.3,3.6,2,6.8,2h6.9a2.88,2.88,0,0,1,2.1.9,2.94,2.94,0,0,1,.9,2.2v7.5a3.28,3.28,0,0,1-.9,2.2,2.88,2.88,0,0,1-2.1.9H401c-7.2,0-12.6-1.8-16.4-5.3s-5.7-8.7-5.7-15.7V80.9h-7.5a2.88,2.88,0,0,1-2.1-.9,2.94,2.94,0,0,1-.9-2.2V70.3a3.08,3.08,0,0,1,3-3h7.5V48.9a3.28,3.28,0,0,1,.9-2.2,2.88,2.88,0,0,1,2.1-.9h8.6a2.88,2.88,0,0,1,2.1.9,2.94,2.94,0,0,1,.9,2.2V67.3h14.6a3.08,3.08,0,0,1,3,3v7.5a3.28,3.28,0,0,1-.9,2.2,2.88,2.88,0,0,1-2.1.9H393.5v24A8.74,8.74,0,0,0,395.7,110.6Z" fill="#343a40"/><path d="M466.3,72.3c4.6,4.1,6.8,9.9,6.8,17.5v33.3a3.28,3.28,0,0,1-.9,2.2,2.88,2.88,0,0,1-2.1.9h-8.6a2.88,2.88,0,0,1-2.1-.9,2.94,2.94,0,0,1-.9-2.2v-3.7a18.31,18.31,0,0,1-7.2,5.8,26.33,26.33,0,0,1-11,2.1c-6.3,0-11.4-1.6-15-4.9a16.16,16.16,0,0,1-5.5-12.7q0-7.65,5.4-12c3.6-3,8.6-5,15-6.2l18.4-3.2a7.42,7.42,0,0,0-2.9-6.4,12.78,12.78,0,0,0-7.7-2.1,10.24,10.24,0,0,0-4.2.7,10.8,10.8,0,0,0-3.2,2.2,5.17,5.17,0,0,1-3.7,1.6H426.4a2.49,2.49,0,0,1-1.9-.7,2,2,0,0,1-.6-1.8,16.5,16.5,0,0,1,3.6-7.1,22.72,22.72,0,0,1,8.1-6.1,30,30,0,0,1,12.5-2.4C455.6,66.2,461.7,68.2,466.3,72.3Zm-7.9,27.6L443,102.6a16.16,16.16,0,0,0-6.6,2.3,4.81,4.81,0,0,0-2.1,4.1,3.64,3.64,0,0,0,2.3,3.4,12.47,12.47,0,0,0,5.8,1.2,19.14,19.14,0,0,0,8.6-1.8,14.21,14.21,0,0,0,5.5-4.7,11.58,11.58,0,0,0,1.9-6.2v-1Z" fill="#343a40"/><path d="M502,125.2a2.88,2.88,0,0,1-2.1.9h-8.6a2.88,2.88,0,0,1-2.1-.9,2.94,2.94,0,0,1-.9-2.2V48.9a3.28,3.28,0,0,1,.9-2.2,2.88,2.88,0,0,1,2.1-.9h8.6a2.88,2.88,0,0,1,2.1.9,2.94,2.94,0,0,1,.9,2.2v74.2A2.88,2.88,0,0,1,502,125.2Z" fill="#343a40"/><path d="M576.9,68.8a3.09,3.09,0,0,1-2.3.8h-7.9a4.65,4.65,0,0,1-2.8-.7,5.86,5.86,0,0,1-1.8-2,14.29,14.29,0,0,0-5.5-5.1c-2.4-1.3-5.7-1.9-9.8-1.9a19.42,19.42,0,0,0-10.3,2.5c-2.8,1.7-4.2,3.9-4.2,6.7a7.09,7.09,0,0,0,2,5.3,15.52,15.52,0,0,0,6.2,3.1c2.8.8,7.4,1.9,13.7,3.3,9.1,2,15.7,4.7,19.8,8.3s6.1,8.4,6.1,14.6a19.84,19.84,0,0,1-4,12.2,25.09,25.09,0,0,1-11.4,8.4,46.21,46.21,0,0,1-17.4,3.1,45.2,45.2,0,0,1-15.8-2.7,29.6,29.6,0,0,1-11.9-7.7,18.89,18.89,0,0,1-4.9-11.5,2.54,2.54,0,0,1,.8-2.2,3.09,3.09,0,0,1,2.3-.8h7.9a5,5,0,0,1,2.9.7,5.86,5.86,0,0,1,1.8,2,13.86,13.86,0,0,0,5.6,5.9c2.4,1.5,6.2,2.2,11.4,2.2a28.25,28.25,0,0,0,12.4-2.4c3.3-1.6,5-4,5-7.1a5.48,5.48,0,0,0-1.9-4.4,15.13,15.13,0,0,0-5.4-2.7c-2.3-.7-5.9-1.6-10.6-2.8-1.9-.4-4.3-.9-7.4-1.7-7.9-2-13.6-4.6-17.1-8s-5.3-8.4-5.3-14.9a20,20,0,0,1,3.9-12A26.43,26.43,0,0,1,531.7,49a37.15,37.15,0,0,1,15.2-3,40.13,40.13,0,0,1,16.5,3.2A26.26,26.26,0,0,1,574,57.3a19.31,19.31,0,0,1,4,9.5A4.9,4.9,0,0,1,576.9,68.8Z" fill="#343a40"/><path d="M592.1,68.2a2.88,2.88,0,0,1,2.1-.9h8.6a3.28,3.28,0,0,1,2.2.9,2.88,2.88,0,0,1,.9,2.1V99c0,4.8,1,8.4,3,11s5.1,3.9,9.3,3.9c3.9,0,7-1.3,9.1-4s3.2-6.3,3.2-10.9V70.4a2.88,2.88,0,0,1,.9-2.1,2.94,2.94,0,0,1,2.2-.9h8.6a3.08,3.08,0,0,1,3,3v52.7a3.28,3.28,0,0,1-.9,2.2,2.88,2.88,0,0,1-2.1.9h-8.6a3.28,3.28,0,0,1-2.2-.9,2.94,2.94,0,0,1-.9-2.2v-2.6a21.21,21.21,0,0,1-15.7,6.8c-8.5,0-14.6-2.4-18.2-7.3s-5.4-11.3-5.4-19.2V70.4A2.94,2.94,0,0,1,592.1,68.2Z" fill="#343a40"/><path d="M675.3,46.7a2.94,2.94,0,0,1,.9,2.2v8.8a3.28,3.28,0,0,1-.9,2.2,2.94,2.94,0,0,1-2.2.9h-9.7a2.88,2.88,0,0,1-2.1-.9,2.94,2.94,0,0,1-.9-2.2V48.9a3.28,3.28,0,0,1,.9-2.2,2.88,2.88,0,0,1,2.1-.9h9.7A2.94,2.94,0,0,1,675.3,46.7Zm-.6,78.5a2.94,2.94,0,0,1-2.2.9H664a2.88,2.88,0,0,1-2.1-.9,2.94,2.94,0,0,1-.9-2.2V70.4a3.08,3.08,0,0,1,3-3h8.6a3.28,3.28,0,0,1,2.2.9,2.88,2.88,0,0,1,.9,2.1v52.7A3.46,3.46,0,0,1,674.7,125.2Z" fill="#343a40"/><path d="M713,110.6c1.3,1.3,3.6,2,6.8,2h6.9a3.28,3.28,0,0,1,2.2.9,2.94,2.94,0,0,1,.9,2.2v7.5a3.28,3.28,0,0,1-.9,2.2,2.94,2.94,0,0,1-2.2.9h-8.4c-7.2,0-12.6-1.8-16.4-5.3s-5.7-8.7-5.7-15.7V80.9h-7.5a2.88,2.88,0,0,1-2.1-.9,2.94,2.94,0,0,1-.9-2.2V70.3a3.08,3.08,0,0,1,3-3h7.5V48.9a3.28,3.28,0,0,1,.9-2.2,2.88,2.88,0,0,1,2.1-.9h8.6a2.88,2.88,0,0,1,2.1.9,2.94,2.94,0,0,1,.9,2.2V67.3h14.6a3.28,3.28,0,0,1,2.2.9,2.88,2.88,0,0,1,.9,2.1v7.5a3.28,3.28,0,0,1-.9,2.2,2.94,2.94,0,0,1-2.2.9H711v24A7.74,7.74,0,0,0,713,110.6Z" fill="#343a40"/><path d="M780.3,70.1a26.76,26.76,0,0,1,9.8,10.5A30.65,30.65,0,0,1,793.6,95v5.1a2.88,2.88,0,0,1-.9,2.1,2.94,2.94,0,0,1-2.2.9H752.7a9.25,9.25,0,0,0,3.8,7.7,15.06,15.06,0,0,0,9.2,2.9c4.1,0,7.4-.9,9.6-2.6a9.44,9.44,0,0,1,2-1.2,6.08,6.08,0,0,1,2.2-.3h9.1a3.23,3.23,0,0,1,2.1.8,2.66,2.66,0,0,1,.9,2c0,1.6-1,3.6-3.1,6a26.53,26.53,0,0,1-9,6.3,32.67,32.67,0,0,1-13.8,2.7,28.22,28.22,0,0,1-14.7-3.8,25.79,25.79,0,0,1-9.7-10.7,35.23,35.23,0,0,1-3.4-16,33.83,33.83,0,0,1,3.4-15.4,27.24,27.24,0,0,1,9.7-11,26.51,26.51,0,0,1,14.6-4.1A25.81,25.81,0,0,1,780.3,70.1Zm-2.1,20.1c-.8-6.9-5-10.4-12.6-10.4-3.9,0-7,1.1-9.2,3.2a11.63,11.63,0,0,0-3.8,7.2Z" fill="#343a40"/><path d="M124.7,62.7H108.9V57.2A11.14,11.14,0,0,0,97.8,46.1H75.4A11.14,11.14,0,0,0,64.3,57.2v5.5H48.5A10.5,10.5,0,0,0,38,73.2v43.3A10.5,10.5,0,0,0,48.5,127h76.2a10.5,10.5,0,0,0,10.5-10.5V73.2A10.5,10.5,0,0,0,124.7,62.7ZM72.8,57.2a2.69,2.69,0,0,1,2.7-2.7H97.9a2.69,2.69,0,0,1,2.7,2.7v5.3H72.8Zm53.9,57.4a4,4,0,0,1-4,4H50.5a4,4,0,0,1-4-4V75.2a4,4,0,0,1,4-4h72.3a4,4,0,0,1,4,4v39.4Z" fill="#343a40"/><path d="M173.2,78.1c-.1-6.4-.2-13-.5-19.6-.5-11.6-1.2-23.4-2.2-35.1-1-10.4-10.2-19.7-20.6-20.6C137.6,1.8,125.2,1,113,.5,104.2.2,95.3,0,86.6,0,81,0,75.4.1,69.9.2,54.4.6,38.8,1.5,23.4,2.8,13,3.8,3.7,13,2.8,23.4,1.7,35.6,1,47.8.5,59.7A5.7,5.7,0,0,1,.4,61C.2,69.4,0,77.9,0,86.4c0,5.6.1,11.2.2,16.7v2.2c.2,9.3.7,18.6,1.3,27.8.4,5.4.8,11.1,1.3,16.8,1,10.4,10.2,19.7,20.6,20.6,14.9,1.3,29.9,2.2,44.6,2.5h37.3c14.7-.4,29.7-1.2,44.6-2.5,10.4-1,19.7-10.2,20.6-20.6.5-5.3.9-10.6,1.2-15.6.1-1.9.2-3.5.3-5s.2-2.7.2-3.9c.2-3.7.4-7.5.5-11.4.1-3.3.2-6.8.3-10.6.1-4.7.2-9.4.2-14V86.1C173.3,83.6,173.2,81,173.2,78.1Zm-8.1,11c0,4.4-.1,8.8-.2,13.2-.1,3.3-.2,6.7-.3,10-.1,3.6-.3,7.2-.5,10.8-.1,1.2-.1,2.4-.2,3.7-.1,1.6-.2,3.2-.3,4.7-.3,4.9-.7,9.8-1.1,14.7-.7,8.2-8.2,15.6-16.4,16.4q-21,1.8-42,2.4h-35q-21-.6-42-2.4c-8.2-.8-15.6-8.2-16.4-16.4-.5-5.3-.9-10.6-1.2-15.8-.6-8.7-1-17.4-1.2-26.2v-2c-.1-5.3-.2-10.5-.2-15.8,0-8,.1-15.9.4-23.9V61.3C9,49.9,9.8,38.5,10.8,27.2,11.6,19,19,11.6,27.2,10.8q21.9-2,43.8-2.4c5.2-.1,10.5-.2,15.7-.2h0c8.3,0,16.6.2,24.9.5,11.6.4,23.1,1.1,34.6,2.2,8.2.8,15.6,8.2,16.4,16.4q1.5,16.5,2.1,33c.2,6.2.4,12.3.5,18.5v7.3A29.08,29.08,0,0,0,165.1,89.1Z" fill="#343a40"/></svg>