<svg xmlns="http://www.w3.org/2000/svg" viewBox="0 0 512 512"><path d="M368.65,185.53H321.92V169.22A32.92,32.92,0,0,0,289,136.28H223a32.91,32.91,0,0,0-32.89,32.94v16.31H143.35a31,31,0,0,0-31,31V344.71a31,31,0,0,0,31,31h225.3a31,31,0,0,0,31-31V216.54A31,31,0,0,0,368.65,185.53ZM215.12,169.22a7.87,7.87,0,0,1,7.85-7.86H289a7.87,7.87,0,0,1,7.85,7.86v15.72H215.12ZM374.57,338.9a11.73,11.73,0,0,1-11.72,11.74H149.15a11.72,11.72,0,0,1-11.72-11.74V222.35a11.73,11.73,0,0,1,11.72-11.74h213.7a11.73,11.73,0,0,1,11.72,11.74Z" transform="translate(-2 -2.36)" fill="#343a40"/><path d="M513.85,233.39c-.22-19.06-.72-38.58-1.48-58C511,141,508.79,106,505.77,71.61c-2.82-30.82-30.11-58.17-60.88-61-36.14-3.18-72.75-5.48-108.81-6.8-26-1-52.33-1.44-78.25-1.44-16.38,0-33,.19-49.29.57C162.79,4,116.58,6.58,71.15,10.6c-30.78,2.84-58.09,30.19-60.92,61-3.13,35.87-5.39,72-6.7,107.38-.06,1.26-.1,2.53-.15,3.79-.9,24.81-1.36,50-1.38,75.1,0,16.43.19,33.09.56,49.52,0,1.07.06,2.14.08,3.23s.06,2.11.07,3.15c.72,27.47,2,55.16,3.72,82.33,1,16.06,2.31,32.8,3.8,49.77,2.83,30.82,30.14,58.17,60.88,61,43.92,3.87,88.24,6.39,131.75,7.51H313.14c43.53-1.12,87.83-3.64,131.71-7.51,30.81-2.84,58.1-30.19,60.92-61,1.4-15.81,2.59-31.35,3.58-46.24.36-5.49.65-10.37.92-14.88.26-4.24.46-8,.63-11.51.61-10.85,1.13-22.26,1.57-33.84.37-9.88.69-20.18,1-31.46.32-13.78.51-27.74.55-41.53,0-3.29,0-6.59,0-9.91C514,249.59,514,242,513.85,233.39ZM489.92,266q-.06,19.53-.52,39.07-.36,14.82-.91,29.63-.6,15.94-1.47,31.9c-.17,3.59-.38,7.2-.6,10.8-.26,4.67-.56,9.33-.86,14q-1.44,21.75-3.36,43.48C480,459,458.06,481,433.88,483.23q-62,5.46-124,7.06H206.1q-62-1.59-124-7.06C58,481,36,459,33.8,434.83q-2-23.41-3.58-46.85-2.5-38.72-3.48-77.45c0-2-.11-4-.15-6q-.53-23.31-.53-46.61,0-35.31,1.29-70.63c0-1.19.09-2.38.15-3.56q1.86-50.55,6.3-101.1C36,58.37,58,36.42,82.12,34.19q64.66-5.7,129.32-7.21,23.19-.56,46.38-.54h0q36.84,0,73.65,1.36,51.19,1.88,102.39,6.39C458.06,36.42,480,58.37,482.2,82.58q4.29,48.83,6.2,97.66,1.08,27.33,1.39,54.62.13,10.88.15,21.75C489.94,259.73,489.94,262.85,489.92,266Z" transform="translate(-2 -2.36)" fill="#343a40"/></svg>