<svg xmlns="http://www.w3.org/2000/svg" width="115.673" height="31.305" viewBox="0 0 115.673 31.305"><path d="M221.6,57.06a.4.4,0,0,1,.126.3V58.48a.461.461,0,0,1-.126.309.406.406,0,0,1-.3.127H218.44v8.717a.461.461,0,0,1-.127.309.4.4,0,0,1-.3.127h-1.293a.405.405,0,0,1-.3-.127.413.413,0,0,1-.126-.309V58.915h-2.882a.406.406,0,0,1-.3-.127A.413.413,0,0,1,213,58.48V57.355a.433.433,0,0,1,.422-.422h7.873A.437.437,0,0,1,221.6,57.06Z" transform="translate(-174.456 -46.631)" fill="#3b3b3b"/><path d="M267.413,76.089c0,.281-.014.534-.028.8a3.9,3.9,0,0,1-.59,1.772,3.43,3.43,0,0,1-1.392,1.251,4.588,4.588,0,0,1-4.021,0,3.641,3.641,0,0,1-1.392-1.251,3.9,3.9,0,0,1-.59-1.772c-.014-.126-.014-.394-.014-.8s0-.689.014-.816a3.9,3.9,0,0,1,.59-1.785,3.533,3.533,0,0,1,1.392-1.251,4.588,4.588,0,0,1,4.021,0,3.644,3.644,0,0,1,1.392,1.251,3.9,3.9,0,0,1,.59,1.785C267.4,75.541,267.413,75.808,267.413,76.089ZM262.1,74.079a1.759,1.759,0,0,0-.633,1.293c-.014.113-.014.351-.014.717s0,.6.014.717A1.712,1.712,0,0,0,262.1,78.1a2.39,2.39,0,0,0,2.587,0,1.758,1.758,0,0,0,.633-1.293c.014-.211.028-.45.028-.717s-.014-.506-.028-.717a1.711,1.711,0,0,0-.633-1.293A2.39,2.39,0,0,0,262.1,74.079Z" transform="translate(-212.449 -58.785)" fill="#3b3b3b"/><path d="M312.716,65.112a1.338,1.338,0,0,0,.956.281h.97a.405.405,0,0,1,.3.126.414.414,0,0,1,.126.309v1.055a.461.461,0,0,1-.126.309.405.405,0,0,1-.3.126h-1.181a3.27,3.27,0,0,1-2.306-.745,2.849,2.849,0,0,1-.8-2.207v-3.43H309.3a.4.4,0,0,1-.3-.127.413.413,0,0,1-.127-.309V59.446a.433.433,0,0,1,.422-.422h1.055V56.437a.46.46,0,0,1,.126-.309.4.4,0,0,1,.3-.126h1.209a.4.4,0,0,1,.3.126.414.414,0,0,1,.127.309v2.587h2.053a.433.433,0,0,1,.422.422V60.5a.461.461,0,0,1-.126.309.4.4,0,0,1-.3.127h-2.053V64.31A1.229,1.229,0,0,0,312.716,65.112Z" transform="translate(-252.985 -45.867)" fill="#3b3b3b"/><path d="M355.347,72.7a3.109,3.109,0,0,1,.956,2.46v4.682a.46.46,0,0,1-.127.309.4.4,0,0,1-.3.127h-1.209a.405.405,0,0,1-.3-.127.413.413,0,0,1-.126-.309v-.52a2.577,2.577,0,0,1-1.012.816,3.7,3.7,0,0,1-1.547.3,3.026,3.026,0,0,1-2.109-.689,2.272,2.272,0,0,1-.773-1.785,2.047,2.047,0,0,1,.759-1.687,4.555,4.555,0,0,1,2.109-.872l2.587-.45a1.043,1.043,0,0,0-.408-.9,1.8,1.8,0,0,0-1.082-.3,1.442,1.442,0,0,0-.591.1,1.52,1.52,0,0,0-.45.309.726.726,0,0,1-.52.225h-1.476a.35.35,0,0,1-.267-.1.281.281,0,0,1-.084-.253,2.319,2.319,0,0,1,.506-1,3.2,3.2,0,0,1,1.139-.858,4.219,4.219,0,0,1,1.757-.337A3.706,3.706,0,0,1,355.347,72.7Zm-1.111,3.88-2.165.38a2.272,2.272,0,0,0-.928.323.677.677,0,0,0-.3.576.511.511,0,0,0,.323.478,1.753,1.753,0,0,0,.815.169,2.693,2.693,0,0,0,1.209-.253,2,2,0,0,0,.773-.661,1.626,1.626,0,0,0,.267-.872v-.141Z" transform="translate(-285.69 -58.844)" fill="#3b3b3b"/><path d="M403.963,67.164a.4.4,0,0,1-.3.126h-1.209a.4.4,0,0,1-.3-.126.414.414,0,0,1-.127-.309V56.437a.461.461,0,0,1,.127-.309.4.4,0,0,1,.3-.126h1.209a.4.4,0,0,1,.3.126.414.414,0,0,1,.127.309V66.869A.407.407,0,0,1,403.963,67.164Z" transform="translate(-329.288 -45.867)" fill="#3b3b3b"/><path d="M431.281,59.357a.435.435,0,0,1-.323.113h-1.111a.654.654,0,0,1-.394-.1.822.822,0,0,1-.253-.281,2.01,2.01,0,0,0-.773-.717,2.929,2.929,0,0,0-1.378-.267,2.731,2.731,0,0,0-1.448.352,1.067,1.067,0,0,0-.59.942,1,1,0,0,0,.281.745,2.18,2.18,0,0,0,.872.436c.394.113,1.04.267,1.926.464a6.309,6.309,0,0,1,2.784,1.167,2.575,2.575,0,0,1,.858,2.053,2.79,2.79,0,0,1-.562,1.715,3.526,3.526,0,0,1-1.6,1.181,6.5,6.5,0,0,1-2.447.436,6.354,6.354,0,0,1-2.221-.38,4.162,4.162,0,0,1-1.673-1.082,2.657,2.657,0,0,1-.689-1.617.357.357,0,0,1,.112-.309.435.435,0,0,1,.323-.113h1.111a.7.7,0,0,1,.408.1.826.826,0,0,1,.253.281,1.949,1.949,0,0,0,.787.829,3.129,3.129,0,0,0,1.6.309,3.972,3.972,0,0,0,1.743-.337,1.083,1.083,0,0,0,.7-1,.77.77,0,0,0-.267-.618,2.125,2.125,0,0,0-.759-.38c-.323-.1-.829-.225-1.49-.394-.267-.056-.6-.126-1.04-.239a5.322,5.322,0,0,1-2.4-1.125,3.1,3.1,0,0,1-.2-3.782,3.716,3.716,0,0,1,1.5-1.167,5.227,5.227,0,0,1,2.137-.422,5.642,5.642,0,0,1,2.32.45,3.693,3.693,0,0,1,1.49,1.139,2.716,2.716,0,0,1,.562,1.336A.686.686,0,0,1,431.281,59.357Z" transform="translate(-346.075 -45.99)" fill="#3b3b3b"/><path d="M482.114,72.832a.4.4,0,0,1,.3-.126h1.209a.462.462,0,0,1,.309.126.4.4,0,0,1,.126.3v4.035a2.47,2.47,0,0,0,.422,1.547,1.784,1.784,0,0,0,2.587-.014,2.424,2.424,0,0,0,.45-1.532V73.142a.4.4,0,0,1,.127-.3.413.413,0,0,1,.309-.126h1.209a.433.433,0,0,1,.422.422v7.409a.461.461,0,0,1-.127.309.4.4,0,0,1-.3.127h-1.209a.461.461,0,0,1-.309-.127.413.413,0,0,1-.127-.309v-.366a3.355,3.355,0,0,1-4.766-.07,4.45,4.45,0,0,1-.759-2.7V73.142A.414.414,0,0,1,482.114,72.832Z" transform="translate(-394.77 -59.55)" fill="#3b3b3b"/><path d="M537.849,56.127a.413.413,0,0,1,.127.309v1.237a.46.46,0,0,1-.127.309.413.413,0,0,1-.309.127h-1.364a.406.406,0,0,1-.3-.127.414.414,0,0,1-.127-.309V56.436a.462.462,0,0,1,.127-.309.405.405,0,0,1,.3-.126h1.364A.413.413,0,0,1,537.849,56.127Zm-.084,11.037a.413.413,0,0,1-.309.126h-1.2a.4.4,0,0,1-.3-.126.413.413,0,0,1-.127-.309v-7.4a.433.433,0,0,1,.422-.422h1.209a.461.461,0,0,1,.309.126.405.405,0,0,1,.127.3v7.409A.488.488,0,0,1,537.765,67.164Z" transform="translate(-438.808 -45.867)" fill="#3b3b3b"/><path d="M559.25,65.112a1.338,1.338,0,0,0,.956.281h.97a.46.46,0,0,1,.309.126.413.413,0,0,1,.127.309v1.055a.46.46,0,0,1-.127.309.413.413,0,0,1-.309.126H560a3.27,3.27,0,0,1-2.306-.745,2.848,2.848,0,0,1-.8-2.207v-3.43h-1.054a.4.4,0,0,1-.3-.127.413.413,0,0,1-.127-.309V59.446a.433.433,0,0,1,.422-.422h1.054V56.437a.461.461,0,0,1,.127-.309.4.4,0,0,1,.3-.126h1.209a.4.4,0,0,1,.3.126.413.413,0,0,1,.127.309v2.587h2.053a.462.462,0,0,1,.31.126.405.405,0,0,1,.126.3V60.5a.462.462,0,0,1-.126.309.414.414,0,0,1-.31.127h-2.024V64.31A1.089,1.089,0,0,0,559.25,65.112Z" transform="translate(-454.909 -45.867)" fill="#3b3b3b"/><path d="M601.925,72.505a3.762,3.762,0,0,1,1.378,1.476,4.308,4.308,0,0,1,.492,2.024v.717a.4.4,0,0,1-.127.3.414.414,0,0,1-.309.127h-5.315a1.3,1.3,0,0,0,.534,1.082,2.117,2.117,0,0,0,1.294.408,2.2,2.2,0,0,0,1.35-.366,1.332,1.332,0,0,1,.281-.169.853.853,0,0,1,.309-.042h1.279a.455.455,0,0,1,.3.112.375.375,0,0,1,.127.281,1.419,1.419,0,0,1-.436.844,3.731,3.731,0,0,1-1.266.886,4.6,4.6,0,0,1-1.94.38,3.967,3.967,0,0,1-2.067-.534,3.628,3.628,0,0,1-1.364-1.5,4.956,4.956,0,0,1-.478-2.25,4.754,4.754,0,0,1,.478-2.165,3.832,3.832,0,0,1,1.364-1.547,3.726,3.726,0,0,1,2.053-.576A3.63,3.63,0,0,1,601.925,72.505Zm-.3,2.826a1.549,1.549,0,0,0-1.772-1.462,1.808,1.808,0,0,0-1.293.45,1.634,1.634,0,0,0-.534,1.012Z" transform="translate(-488.122 -58.955)" fill="#3b3b3b"/><path d="M53.689,49.1H50.83v-1A2.016,2.016,0,0,0,48.821,46.1H44.768a2.016,2.016,0,0,0-2.009,2.009v1H39.9A1.9,1.9,0,0,0,38,51v7.835a1.9,1.9,0,0,0,1.9,1.9H53.689a1.9,1.9,0,0,0,1.9-1.9V51A1.9,1.9,0,0,0,53.689,49.1Zm-9.391-1a.487.487,0,0,1,.485-.489h4.057a.487.487,0,0,1,.489.485v.963H44.3ZM54.05,58.5a.724.724,0,0,1-.724.724H40.262a.724.724,0,0,1-.724-.724v-7.13a.724.724,0,0,1,.724-.724H53.345a.724.724,0,0,1,.724.724V58.5Z" transform="translate(-31.124 -37.758)" fill="#3b3b3b"/><path d="M31.341,14.132c-.018-1.158-.036-2.352-.09-3.547-.09-2.1-.217-4.234-.4-6.351A4.284,4.284,0,0,0,27.125.507C24.9.326,22.655.181,20.448.09,18.855.036,17.245,0,15.67,0c-1.013,0-2.027.018-3.022.036-2.8.072-5.628.235-8.414.47A4.284,4.284,0,0,0,.507,4.234C.308,6.442.181,8.65.09,10.8a1.026,1.026,0,0,1-.018.235C.036,12.558,0,14.1,0,15.634c0,1.013.018,2.027.036,3.022v.4c.036,1.683.127,3.366.235,5.03.072.977.145,2.009.235,3.04a4.284,4.284,0,0,0,3.728,3.728c2.7.235,5.41.4,8.07.452h6.75c2.66-.072,5.374-.217,8.07-.452a4.284,4.284,0,0,0,3.728-3.728c.09-.959.163-1.918.217-2.823.018-.344.036-.633.054-.9s.036-.489.036-.706c.036-.67.072-1.357.09-2.063.018-.6.036-1.23.054-1.918.018-.85.036-1.7.036-2.533v-.6C31.359,15.128,31.341,14.657,31.341,14.132Zm-1.466,1.99c0,.8-.018,1.592-.036,2.389-.018.6-.036,1.212-.054,1.81-.018.651-.054,1.3-.09,1.954-.018.217-.018.434-.036.67-.018.29-.036.579-.054.85-.054.887-.127,1.773-.2,2.66a3.437,3.437,0,0,1-2.968,2.968q-3.8.326-7.6.434H12.5q-3.8-.109-7.6-.434a3.455,3.455,0,0,1-2.968-2.968c-.09-.959-.163-1.918-.217-2.859-.109-1.574-.181-3.149-.217-4.741v-.362c-.018-.959-.036-1.9-.036-2.859,0-1.448.018-2.877.072-4.325v-.217c.09-2.063.235-4.126.416-6.17A3.455,3.455,0,0,1,4.922,1.954q3.963-.362,7.926-.434c.941-.018,1.9-.036,2.841-.036h0c1.5,0,3,.036,4.506.09,2.1.072,4.18.2,6.261.4A3.455,3.455,0,0,1,29.423,4.94q.271,2.986.38,5.971c.036,1.122.072,2.226.09,3.348V15.58a5.277,5.277,0,0,0-.018.543Z" fill="#3b3b3b"/></svg>