<svg xmlns="http://www.w3.org/2000/svg" viewBox="0 0 217.49 217.19"><path d="M108.64,4.81c11.38,0,22.94.21,34.36.64,15.84.57,31.91,1.58,47.74,3,9.1.84,17.48,9.22,18.31,18.29,1.33,15.09,2.3,30.4,2.89,45.49.34,8.53.56,17.08.65,25.44,0,3.79.07,7.1.07,10.13v4.36c0,6-.1,12.16-.24,18.2-.12,4.95-.26,9.46-.43,13.81-.19,5.07-.42,10.06-.68,14.87-.07,1.51-.17,3.14-.28,5s-.24,4.1-.4,6.51c-.43,6.53-1,13.34-1.57,20.24-.83,9.08-9.21,17.47-18.29,18.3-19.24,1.7-38.68,2.8-57.77,3.29H84.45c-19.09-.49-38.53-1.59-57.75-3.29-9.09-.83-17.48-9.22-18.31-18.28C7.74,183.36,7.18,176,6.72,169,6,157.07,5.4,145,5.09,132.92v-2.83c-.16-7.21-.24-14.52-.24-21.72,0-11,.21-22,.6-32.91a12.09,12.09,0,0,1,.07-1.59v-.06c.57-15.54,1.56-31.38,2.94-47.07.83-9.09,9.22-17.47,18.29-18.31C46.69,6.67,67,5.54,87.07,5.07c7.17-.16,14.45-.25,21.64-.25h0m0-4.81Q97.84,0,87,.26,56.65,1,26.32,3.64C15,4.64,4.71,15,3.67,26.3Q1.6,50,.67,73.63A13.33,13.33,0,0,1,.6,75.3Q0,91.83,0,108.37q0,10.92.25,21.83L.31,133Q.77,151.17,2,169.29q.7,11,1.68,21.94c1,11.33,11.32,21.61,22.65,22.66q29.07,2.55,58.14,3.3h48.66q29.07-.74,58.14-3.3c11.33-1,21.62-11.33,22.65-22.66q.9-10.18,1.58-20.36c.14-2.18.28-4.37.4-6.55.11-1.69.2-3.38.28-5.06q.42-7.47.69-14.93.27-6.95.43-13.88.21-9.15.24-18.29v-4.38c0-3.4,0-6.79-.07-10.19q-.13-12.78-.65-25.57-.9-22.86-2.91-45.72c-1-11.34-11.32-21.62-22.65-22.66q-24-2.12-48-3Q125.93,0,108.67,0Z" fill="#ec6b23"/><path d="M156.09,107a10.78,10.78,0,0,0,3.57-7.73c0-3.75-2.38-8.51-9-9.59L128.38,86.4a.87.87,0,0,1-.66-.48l-9.88-20c-2.67-5.65-7.27-6.26-9.12-6.26s-6.45.61-9.12,6.28l-9.88,20a.87.87,0,0,1-.66.48L67,89.63c-6.77,1.09-9.18,5.86-9.18,9.61A10.94,10.94,0,0,0,61,106.7l.11.12,16.19,15.74a.88.88,0,0,1,.25.77l-3.86,22.21a14.46,14.46,0,0,0-.18,2.07,10.42,10.42,0,0,0,1.93,6.13A9.18,9.18,0,0,0,83,157.51a11.59,11.59,0,0,0,5.6-1.53l19.66-10.34a.91.91,0,0,1,.82,0L128.82,156a11.46,11.46,0,0,0,5.57,1.51,9.13,9.13,0,0,0,7.49-3.78,10.41,10.41,0,0,0,1.92-6.12,14.37,14.37,0,0,0-.12-2.07v-.09l-3.81-22.14a.85.85,0,0,1,.25-.77Zm-18.6,9.21a12.15,12.15,0,0,0-3.5,10.77l3.36,19.47a7.65,7.65,0,0,1,.06,1.17,4,4,0,0,1-.71,2.38,2.76,2.76,0,0,1-2.31,1.12,5.05,5.05,0,0,1-2.51-.73l-17.5-9.2a12.12,12.12,0,0,0-11.32,0L85.57,150.4a5.33,5.33,0,0,1-2.52.73A2.75,2.75,0,0,1,80.69,150a4,4,0,0,1-.71-2.38,9.4,9.4,0,0,1,.11-1.19L83.45,127a12.21,12.21,0,0,0-3.51-10.78L65.72,102.33a4.72,4.72,0,0,1-1.54-3.11c0-1.22.64-2.79,3.68-3.28L87.44,93.1a12.16,12.16,0,0,0,9.15-6.65l8.77-17.72c.81-1.77,2-2.66,3.36-2.66s2.55.89,3.35,2.64l8.78,17.74A12.16,12.16,0,0,0,130,93.1l19.59,2.84c3,.49,3.67,2.06,3.67,3.28a4.54,4.54,0,0,1-1.63,3.14Z" fill="#ec6b23"/></svg>