<svg xmlns="http://www.w3.org/2000/svg" viewBox="0 0 149.52 149.32"><path d="M74.69,3.31c7.82,0,15.77.15,23.62.44,10.89.4,21.94,1.08,32.82,2.06,6.26.58,12,6.34,12.59,12.57.92,10.39,1.58,20.9,2,31.29.23,5.85.38,11.74.45,17.49,0,2.6,0,4.88,0,7v3c0,4.12-.07,8.36-.16,12.5-.08,3.44-.18,6.51-.3,9.5-.12,3.48-.28,6.92-.46,10.23-.05,1-.12,2.16-.2,3.43s-.16,2.82-.27,4.47c-.3,4.49-.69,9.18-1.08,13.92a14.66,14.66,0,0,1-12.58,12.59c-13.22,1.16-26.59,1.92-39.71,2.26H58.06c-13.12-.34-26.49-1.1-39.7-2.26-6.25-.58-12-6.34-12.59-12.58-.45-5.11-.83-10.16-1.15-15C4.09,108,3.71,99.68,3.5,91.39v-2c-.11-5-.17-10-.17-14.93,0-7.56.15-15.12.42-22.62a8,8,0,0,1,0-1.1v0c.39-10.67,1.07-21.56,2-32.36A14.66,14.66,0,0,1,18.39,5.8c13.71-1.21,27.67-2,41.47-2.31,4.93-.11,9.94-.17,14.88-.17h0m0-3.31Q67.27,0,59.79.19,38.94.67,18.1,2.5c-7.79.69-14.86,7.79-15.58,15.58Q1.1,34.36.46,50.63a8.93,8.93,0,0,1-.05,1.15Q0,63.14,0,74.51q0,7.5.17,15l0,1.95q.33,12.47,1.13,24.93Q1.82,124,2.5,131.47c.68,7.79,7.78,14.86,15.57,15.58q20,1.75,40,2.27H91.49q20-.51,40-2.27c7.79-.69,14.87-7.79,15.58-15.58q.61-7,1.08-14c.1-1.5.19-3,.28-4.5.07-1.15.13-2.32.19-3.48q.28-5.13.47-10.26.19-4.77.3-9.54.15-6.28.16-12.58v-3c0-2.33,0-4.67,0-7q-.1-8.79-.45-17.58-.61-15.72-2-31.44c-.69-7.79-7.78-14.86-15.57-15.58Q115,1,98.46.44,86.58,0,74.71,0Z" fill="#4caf50"/><path d="M65.88,111.34a9.35,9.35,0,0,1-.51-18.69,4.34,4.34,0,0,1,.51,0h44a9.35,9.35,0,1,1,.5,18.69H65.88Zm0-13.11a3.78,3.78,0,1,0,0,7.56h44a3.78,3.78,0,0,0,0-7.56Z" fill="#4caf50"/><path d="M39.72,93.33A8.69,8.69,0,1,0,48.41,102h0A8.7,8.7,0,0,0,39.72,93.33Z" fill="#4caf50"/><path d="M65.88,56.73a9.34,9.34,0,0,1,0-18.68h44a9.34,9.34,0,1,1,0,18.68h-44Zm0-13.11a3.78,3.78,0,0,0,0,7.56h44a3.78,3.78,0,0,0,0-7.56Z" fill="#4caf50"/><path d="M45,42.08V52.7H34.4V42.08H45M45.28,38H34.18a3.88,3.88,0,0,0-3.87,3.86V53a3.88,3.88,0,0,0,3.87,3.86H45.31A3.86,3.86,0,0,0,49.18,53V41.82A3.86,3.86,0,0,0,45.31,38Z" fill="#4caf50"/><path d="M109.86,65.36h-44a9.35,9.35,0,1,0,0,18.69h44a9.35,9.35,0,0,0,0-18.69Zm0,13.11h-44a3.78,3.78,0,0,1,0-7.56h44a3.78,3.78,0,1,1,0,7.56Z" fill="#4caf50"/><path d="M37.2,82.4a3,3,0,0,1-2.12-.88l-3.74-3.78a2.56,2.56,0,1,1,3.57-3.66l.06.06,2,2.06a.27.27,0,0,0,.2.09.27.27,0,0,0,.21-.09l7-7a2.58,2.58,0,1,1,3.77,3.51l-.13.13-8.76,8.74A3,3,0,0,1,37.2,82.4Z" fill="#4caf50" fill-rule="evenodd"/></svg>